<svg width="1474" height="1443" viewBox="0 0 1474 1443" fill="none" xmlns="http://www.w3.org/2000/svg">
<path d="M737 0C640.216 0 544.379 19.1255 454.962 56.2844C365.545 93.4434 284.299 147.908 215.862 216.569C77.648 355.236 0 543.308 0 739.413C0 1066.23 211.519 1343.51 504.108 1441.85C540.958 1447.77 552.75 1424.85 552.75 1404.88V1279.92C348.601 1324.29 305.118 1180.84 305.118 1180.84C271.216 1095.07 223.311 1072.15 223.311 1072.15C156.244 1026.3 228.47 1027.78 228.47 1027.78C302.17 1032.96 341.231 1103.94 341.231 1103.94C405.35 1216.33 513.689 1183.06 555.698 1165.31C562.331 1117.25 581.493 1084.72 602.129 1066.23C438.515 1047.75 266.794 984.158 266.794 702.442C266.794 620.367 294.8 554.56 342.705 502.061C335.335 483.576 309.54 406.677 350.075 306.856C350.075 306.856 411.983 286.892 552.75 382.276C610.973 366.009 674.355 357.876 737 357.876C799.645 357.876 863.027 366.009 921.25 382.276C1062.02 286.892 1123.92 306.856 1123.92 306.856C1164.46 406.677 1138.66 483.576 1131.29 502.061C1179.2 554.56 1207.21 620.367 1207.21 702.442C1207.21 984.898 1034.75 1047.01 870.397 1065.49C896.929 1088.42 921.25 1133.52 921.25 1202.29V1404.88C921.25 1424.85 933.042 1448.51 970.629 1441.85C1263.22 1342.77 1474 1066.23 1474 739.413C1474 642.312 1454.94 546.161 1417.9 456.452C1380.86 366.742 1326.57 285.23 1258.14 216.569C1189.7 147.908 1108.45 93.4434 1019.04 56.2844C929.621 19.1255 833.784 0 737 0Z" fill="#36D700"/>
</svg>
